<?xml version="1.0" encoding="utf-8"?>
<!-- Generator: Adobe Illustrator 21.1.0, SVG Export Plug-In . SVG Version: 6.00 Build 0)  -->
<svg version="1.1" xmlns="http://www.w3.org/2000/svg" xmlns:xlink="http://www.w3.org/1999/xlink" x="0px" y="0px"
	 viewBox="0 0 1080 1080" style="enable-background:new 0 0 1080 1080;" xml:space="preserve">
<style type="text/css">
	.st0{fill:#22002E;stroke:#000000;stroke-miterlimit:10;}
	.st1{fill:#FCEE21;stroke:#000000;stroke-miterlimit:10;}
	.st2{fill:#F2F2F2;stroke:#000000;stroke-miterlimit:10;}
	.st3{fill:#FFFFFF;stroke:#000000;stroke-miterlimit:10;}
	.st4{fill:#F15A24;stroke:#000000;stroke-miterlimit:10;}
</style>
<g id="BG">
	<rect class="st0" width="1092.2" height="1092.2"/>
	<rect x="875.7" y="1420.5" class="st0" width="1092.2" height="1092.2"/>
</g>
<g id="Layer_2">
	<polygon class="st1" points="118.1,297.4 91.8,293.4 71.3,310.3 69.7,286.9 46.4,276.4 71.7,266 77.9,242.6 95.1,259.5 
		122.1,255.6 107.5,276.5 	"/>
</g>
<g id="Layer_3">
	<polygon class="st1" points="136.6,801.7 123.8,797.4 113,805.5 113.1,792 102.1,784.2 114.9,780.2 118.9,767.3 126.7,778.3 
		140.2,778.1 132.2,788.9 	"/>
</g>
<g id="Layer_4">
	<polygon class="st1" points="824.1,94.1 812.2,95.7 806.8,106.4 801.6,95.6 789.7,93.8 798.3,85.5 796.4,73.6 807,79.3 817.7,73.8 
		815.6,85.6 	"/>
</g>
<g id="Layer_5">
	<polygon class="st2" points="486.1,999.4 469.1,995 455.9,1006.6 454.7,989 439.7,980 456,973.6 459.9,956.5 471.1,970 
		488.6,968.4 479.2,983.2 	"/>
</g>
<g id="Layer_6">
	<polygon class="st3" points="400.1,106.4 386.5,113.2 384.3,128.2 373.7,117.3 358.7,119.9 365.7,106.4 358.7,93 373.7,95.6 
		384.3,84.7 386.5,99.7 	"/>
</g>
<g id="Layer_7">
	<polygon class="st2" points="824.1,744.4 812.2,746 806.8,756.8 801.5,746 789.6,744.1 798.3,735.8 796.3,723.9 807,729.6 
		817.7,724 815.5,735.9 	"/>
	<polygon class="st2" points="222.5,546.1 205.7,537.9 189.4,547 192,528.5 178.3,515.8 196.7,512.6 204.5,495.6 213.3,512.2 
		231.9,514.3 218.8,527.8 	"/>
</g>
<g id="Layer_8">
	<polygon class="st1" points="918.7,927.7 903.4,926.8 893.9,938.9 890.1,924 875.7,918.8 888.6,910.5 889.1,895.2 901,905 
		915.7,900.7 910.1,915 	"/>
	<polygon class="st1" points="918.7,254.5 899.1,247.2 882,259.1 882.9,238.3 866.3,225.7 886.4,220.1 893.2,200.4 904.7,217.8 
		925.6,218.2 912.6,234.5 	"/>
</g>
<g id="Layer_10">
	<circle class="st4" cx="546.1" cy="521.3" r="149.8"/>
</g>
<g id="Layer_11">
</g>
</svg>
